<svg xmlns="http://www.w3.org/2000/svg" width="24" height="24" viewBox="0 0 24 24" fill="none" stroke="currentColor" stroke-width="2" stroke-linecap="round" stroke-linejoin="round" class="lucide lucide-shopping-basket"><path d="m15 11-1 9"/><path d="m19 11-4-7"/><path d="m5 11 4-7"/><path d="M3 11h18"/><path d="m12 3 1.5 2.5"/><path d="M8 11v1.5a.5.5 0 0 1-.5.5h-1a.5.5 0 0 1-.5-.5V11"/><path d="M17.5 12.5a.5.5 0 0 1 .5.5V11h-2v1.5a.5.5 0 0 1 .5.5h1a.5.5-0-0-1 .5-.5V11"/><path d="M21 11.5a1.5 1.5 0 0 1-1.5 1.5h-15A1.5 1.5 0 0 1 3 11.5V6a2 2 0 0 1 2-2h14a2 2 0 0 1 2 2v5.5Z"/><path d="M12 3.5A2.5 2.5 0 0 0 9.5 6v0"/><path d="M14.5 6V3.5A2.5 2.5 0 0 0 12 1v0"/></svg>